<?xml version="1.0" standalone="no"?>
<!DOCTYPE svg PUBLIC "-//W3C//DTD SVG 20010904//EN"
 "http://www.w3.org/TR/2001/REC-SVG-20010904/DTD/svg10.dtd">
<svg version="1.0" xmlns="http://www.w3.org/2000/svg"
 width="1200.000000pt" height="900.000000pt" viewBox="0 0 1200.000000 900.000000"
 preserveAspectRatio="xMidYMid meet">

<g transform="translate(0.000000,900.000000) scale(0.100000,-0.100000)"
fill="#000000" stroke="none">
<path d="M0 4500 l0 -4500 6000 0 6000 0 0 4500 0 4500 -6000 0 -6000 0 0
-4500z m5515 2629 c-801 -197 -1430 -686 -1774 -1380 -263 -529 -332 -1077
-220 -1754 106 -644 383 -1227 766 -1609 255 -256 571 -437 853 -490 110 -21
328 -21 423 0 255 57 469 253 558 511 31 92 34 89 -84 96 -588 36 -1059 379
-1231 897 -26 78 -26 90 2 90 13 0 24 -20 41 -75 128 -412 487 -730 939 -830
104 -23 266 -45 335 -45 l34 0 7 73 c8 94 -9 246 -40 356 -54 188 -203 445
-396 683 -50 62 -172 203 -269 313 -474 533 -680 864 -749 1204 -25 122 -27
313 -4 431 67 357 300 664 611 806 86 40 227 79 323 90 43 5 63 12 67 23 92
267 271 465 506 562 156 65 212 74 442 73 204 0 213 -1 327 -32 368 -99 649
-259 927 -527 475 -457 785 -1100 873 -1805 17 -140 17 -575 0 -700 -61 -428
-190 -780 -410 -1115 -110 -168 -186 -261 -331 -405 -206 -205 -396 -342 -656
-470 -294 -146 -638 -242 -915 -255 l-105 -6 120 31 c515 130 916 348 1269
690 336 325 580 745 696 1195 117 457 107 976 -30 1531 -132 537 -379 1000
-707 1328 -250 251 -544 422 -833 487 -111 24 -339 26 -443 3 -255 -57 -469
-253 -558 -511 -31 -92 -34 -89 84 -96 588 -36 1059 -379 1231 -897 26 -78 26
-90 -2 -90 -13 0 -24 20 -41 75 -127 412 -487 730 -939 830 -104 23 -266 45
-335 45 l-34 0 -7 -73 c-8 -94 9 -246 40 -356 54 -188 203 -445 396 -683 50
-62 172 -203 269 -313 474 -533 680 -864 749 -1204 25 -122 27 -313 4 -431
-67 -357 -300 -664 -611 -806 -86 -40 -227 -79 -323 -90 -43 -5 -63 -12 -67
-23 -92 -267 -271 -465 -506 -562 -156 -65 -212 -74 -442 -73 -204 0 -213 1
-327 32 -368 99 -649 259 -927 527 -475 457 -785 1100 -873 1805 -17 140 -17
575 0 700 61 428 190 780 410 1115 110 168 186 261 331 405 203 203 394 340
651 469 225 112 521 206 760 240 41 6 86 13 100 15 14 2 57 4 95 4 l70 1 -120
-30z"/>
<path d="M5610 6436 c-141 -42 -261 -117 -386 -241 -208 -207 -315 -480 -301
-768 7 -144 33 -241 106 -392 100 -209 231 -388 576 -790 114 -132 244 -290
290 -350 232 -307 383 -618 429 -882 18 -99 21 -314 6 -383 -6 -25 -12 -55
-15 -67 l-5 -22 71 20 c233 65 466 266 588 507 80 158 117 331 108 505 -7 144
-33 241 -106 392 -100 209 -231 388 -576 790 -114 132 -244 290 -290 350 -232
307 -383 618 -429 882 -20 109 -20 316 -1 403 7 36 13 66 12 66 -1 1 -36 -8
-77 -20z"/>
</g>
</svg>
