<?xml version="1.0" standalone="no"?>
<!DOCTYPE svg PUBLIC "-//W3C//DTD SVG 20010904//EN"
 "http://www.w3.org/TR/2001/REC-SVG-20010904/DTD/svg10.dtd">
<svg version="1.0" xmlns="http://www.w3.org/2000/svg"
 width="2000.000000pt" height="1506.000000pt" viewBox="0 0 2000.000000 1506.000000"
 preserveAspectRatio="xMidYMid meet">

<g transform="translate(0.000000,1506.000000) scale(0.100000,-0.100000)"
fill="#000000" stroke="none">
<path d="M12275 12350 c-170 -5 -328 -11 -350 -14 -22 -3 -105 -7 -185 -10
-80 -2 -203 -12 -275 -22 -71 -10 -152 -18 -180 -16 -231 11 -621 12 -692 2
-77 -11 -83 -14 -83 -35 0 -33 -56 -72 -80 -57 -15 9 -19 7 -23 -14 -2 -13 0
-27 6 -31 6 -4 54 -6 107 -4 75 2 99 -1 108 -12 11 -12 2 -19 -50 -40 -35 -13
-83 -28 -108 -32 -25 -4 -101 -20 -170 -36 -121 -29 -177 -31 -167 -6 19 50
18 57 -3 57 -12 0 -25 10 -32 26 -11 23 -16 26 -51 21 -51 -7 -68 -24 -44 -41
9 -7 17 -23 17 -34 0 -12 8 -23 20 -27 26 -8 25 -21 -3 -40 -13 -8 -29 -33
-36 -55 -14 -46 -23 -50 -39 -15 -15 32 -29 32 -43 1 -13 -28 -28 -34 -118
-46 -47 -6 -70 -15 -90 -34 -20 -19 -38 -26 -67 -26 -60 0 -110 -18 -128 -45
-9 -14 -26 -25 -37 -25 -11 0 -37 -9 -59 -20 -22 -11 -44 -20 -51 -20 -6 0
-27 -13 -46 -30 -20 -18 -45 -30 -62 -30 -16 0 -39 -10 -52 -23 -50 -48 -86
-67 -131 -67 -23 0 -76 -10 -116 -21 -59 -18 -73 -26 -78 -46 -5 -17 -13 -23
-35 -23 -40 0 -37 -23 6 -56 19 -14 35 -30 35 -34 0 -4 -32 -28 -71 -54 -70
-47 -71 -47 -85 -27 -14 19 -17 19 -55 5 -23 -7 -50 -14 -60 -14 -16 0 -19 -8
-19 -51 0 -62 -25 -101 -83 -130 -23 -12 -50 -28 -59 -36 -10 -9 -34 -17 -55
-18 -21 -1 -60 -14 -86 -28 -26 -14 -55 -23 -62 -20 -12 4 -14 -1 -9 -23 3
-17 0 -37 -8 -47 -13 -18 -15 -17 -40 2 -19 16 -41 21 -82 21 -43 0 -56 3 -56
15 0 8 -3 15 -6 15 -15 0 -81 -43 -92 -60 -10 -17 -9 -18 21 -9 46 13 47 12
36 -23 -12 -45 -12 -48 11 -48 37 0 20 -40 -30 -74 -32 -21 -40 -20 -40 3 0
28 -15 34 -45 18 l-26 -13 20 -25 20 -26 -57 -55 c-31 -30 -79 -68 -107 -83
-27 -16 -56 -37 -63 -47 -7 -10 -35 -29 -61 -42 -28 -15 -52 -36 -60 -52 -7
-16 -21 -34 -32 -42 -28 -19 -59 -86 -59 -125 0 -28 -8 -42 -42 -73 -27 -24
-48 -55 -58 -84 -9 -26 -35 -78 -58 -116 -48 -80 -60 -128 -98 -379 -14 -99
-32 -194 -39 -210 -10 -25 -9 -55 7 -165 14 -105 16 -141 7 -163 -15 -36 -10
-41 112 -124 55 -37 99 -71 99 -76 0 -5 15 -7 33 -4 74 13 186 17 192 6 5 -7
25 -8 54 -4 25 3 70 1 100 -5 40 -7 63 -7 87 2 23 8 40 9 56 1 17 -7 47 -3
128 18 58 15 150 32 205 38 73 8 143 24 255 61 85 28 187 55 228 60 56 7 86
17 120 40 25 16 49 30 54 30 22 0 298 106 333 128 22 14 116 66 209 114 166
88 226 125 399 250 91 66 176 98 260 98 33 0 37 3 37 25 0 20 7 26 43 35 23 6
58 20 77 31 87 50 148 73 215 80 66 6 148 35 250 87 22 11 65 23 95 27 60 8
79 16 105 42 16 16 16 17 -1 24 -15 5 -12 8 16 13 19 4 54 15 77 23 27 10 57
13 80 10 32 -6 41 -3 58 19 17 22 32 27 100 35 160 17 282 42 368 76 48 18
118 38 155 43 37 5 113 16 170 25 106 16 268 14 298 -3 10 -5 72 -7 145 -4
104 4 133 2 151 -10 13 -9 57 -19 97 -23 41 -4 131 -25 200 -47 170 -53 210
-61 226 -48 10 8 22 7 44 -4 16 -9 37 -16 46 -16 23 0 219 -105 315 -168 47
-32 127 -99 178 -151 51 -51 119 -111 150 -132 31 -21 79 -58 106 -82 43 -39
47 -46 37 -65 -9 -17 -6 -31 21 -81 18 -33 39 -61 46 -61 9 0 11 -10 7 -34 -5
-26 1 -48 28 -102 l34 -68 14 27 15 27 40 -83 c23 -45 44 -98 48 -117 l7 -35
-25 30 c-35 41 -45 24 -34 -55 45 -332 58 -615 33 -734 -9 -43 -11 -75 -5 -85
7 -14 10 -12 18 9 5 14 12 34 15 45 4 11 5 -5 3 -36 -3 -32 -20 -95 -41 -150
-28 -73 -40 -121 -50 -216 -19 -164 -52 -288 -104 -391 -10 -20 -32 -78 -49
-128 -17 -50 -93 -216 -171 -370 -77 -153 -166 -335 -199 -404 -37 -80 -83
-157 -127 -214 -37 -49 -104 -148 -148 -220 -44 -72 -108 -167 -141 -210 -34
-43 -98 -128 -144 -188 -54 -70 -96 -115 -120 -127 -20 -11 -43 -30 -51 -42
-8 -13 -98 -124 -200 -247 -102 -122 -190 -236 -194 -252 -6 -23 -13 -30 -32
-30 -44 0 -199 -164 -465 -493 -57 -71 -130 -152 -163 -180 -32 -28 -64 -66
-72 -83 -7 -17 -29 -47 -50 -65 -20 -19 -48 -45 -63 -60 -15 -14 -54 -45 -87
-69 -33 -25 -103 -79 -155 -121 -52 -41 -108 -84 -125 -94 -16 -11 -50 -38
-75 -60 -25 -23 -68 -54 -95 -70 -88 -51 -108 -67 -94 -76 11 -6 7 -15 -16
-40 -38 -40 -113 -89 -137 -89 -18 0 -158 -71 -230 -116 -38 -25 -68 -69 -68
-102 0 -24 -28 -49 -180 -163 -69 -51 -183 -140 -254 -197 -91 -72 -132 -100
-139 -93 -18 18 -36 13 -30 -8 4 -15 -11 -29 -69 -66 -40 -26 -96 -65 -124
-86 -53 -40 -122 -74 -132 -64 -9 8 57 63 103 85 42 21 133 105 124 115 -3 3
-15 -3 -26 -12 -11 -10 -75 -56 -142 -103 -71 -50 -126 -96 -133 -112 -7 -15
-22 -31 -33 -36 -12 -6 -26 -25 -31 -43 -13 -44 -35 -60 -729 -523 -326 -217
-706 -462 -910 -584 -192 -115 -444 -266 -559 -336 -115 -69 -214 -126 -220
-126 -6 0 -3 -5 7 -11 34 -20 260 -28 742 -29 264 0 530 -5 590 -10 124 -12
369 -38 750 -80 274 -30 580 -59 905 -85 788 -63 986 -87 1680 -201 790 -130
939 -145 1282 -126 123 7 329 17 458 22 129 5 248 14 265 20 16 6 50 31 76 55
37 35 56 45 95 50 27 3 59 8 71 11 23 4 53 30 53 45 0 17 -48 21 -78 5 -28
-15 -32 -14 -57 6 -24 19 -31 20 -61 9 -26 -9 -43 -10 -67 -2 -23 8 -49 8 -86
1 -111 -21 -118 -10 -28 44 l62 37 240 -3 c259 -3 304 3 344 46 13 13 34 27
47 30 24 6 49 40 40 54 -2 4 -26 18 -52 32 l-48 23 44 19 c29 13 56 17 77 13
17 -3 34 -1 38 5 3 5 18 9 33 9 l27 -1 -30 -8 -30 -8 35 0 c19 -1 44 5 54 13
11 8 27 15 35 15 9 -1 3 -7 -14 -15 -25 -12 -26 -14 -5 -8 32 8 110 41 110 47
0 2 -11 3 -24 2 -13 0 -21 -5 -18 -11 3 -5 -1 -5 -9 1 -8 6 -63 14 -122 18
-96 5 -112 9 -145 33 -40 29 -62 52 -62 65 0 13 108 9 144 -6 18 -7 64 -17
103 -21 l70 -7 17 41 c9 23 16 56 16 74 0 18 7 43 16 55 15 22 21 23 148 21
117 -2 135 0 173 19 23 12 44 26 47 31 8 12 -131 24 -260 22 -90 -2 -113 1
-123 13 -16 19 -5 38 58 107 65 69 67 113 6 173 l-35 35 45 7 c52 7 161 -7
158 -21 -1 -6 -5 -18 -8 -28 -5 -13 -3 -16 8 -11 27 10 54 -14 62 -53 6 -35 8
-37 21 -18 8 10 14 36 14 56 0 21 6 41 13 46 6 4 82 8 169 8 86 0 159 3 162 6
12 12 -6 40 -35 55 -31 16 -38 41 -14 50 27 11 16 22 -17 18 -59 -8 -276 -9
-271 -2 6 11 -5 10 -30 -4 -20 -10 -21 -10 -8 6 11 13 11 16 1 14 -7 -2 -15 3
-17 10 -3 9 11 12 54 12 68 0 156 21 231 55 45 21 52 28 52 53 0 26 10 36 80
82 44 29 80 55 80 57 0 3 -9 16 -20 30 -11 14 -20 34 -20 43 0 21 -73 90 -95
90 -8 0 -36 13 -62 29 -45 28 -51 29 -99 19 -33 -6 -58 -7 -69 -1 -14 8 -9 15
33 42 34 21 51 40 55 59 5 23 25 37 122 87 63 33 115 65 115 71 0 6 -7 17 -15
24 -15 13 -20 56 -9 84 4 11 19 16 43 16 23 0 47 9 65 24 l30 23 -22 28 c-17
22 -21 36 -16 62 4 19 2 39 -5 47 -15 18 -85 28 -198 27 -89 0 -161 14 -164
33 0 6 15 19 34 30 l35 20 19 -21 c17 -20 22 -21 76 -11 76 13 70 32 -11 36
-45 2 -62 7 -62 17 0 7 10 15 22 17 12 2 23 9 26 16 3 9 -22 12 -103 12 -103
0 -195 14 -195 30 0 4 22 20 50 34 42 22 62 26 136 26 75 0 85 2 74 15 -18 21
12 58 58 71 31 9 37 15 40 42 3 34 27 48 62 37 31 -10 41 4 20 25 -15 15 -18
25 -11 44 9 21 6 25 -31 39 l-40 16 19 31 c10 17 51 63 91 102 63 60 73 74 67
95 -3 14 -8 38 -12 53 -9 46 -64 90 -149 120 -43 15 -80 32 -82 38 -1 5 37 31
86 57 86 47 89 49 111 105 15 37 32 62 51 73 37 22 67 96 51 125 -6 11 -11 36
-11 55 0 40 -28 69 -83 87 -20 6 -42 21 -48 33 -20 36 -101 117 -118 117 -10
0 -22 5 -29 12 -20 20 -150 11 -181 -13 -32 -25 -50 -11 -33 26 l12 26 -44 -6
c-58 -9 -92 1 -75 22 29 34 70 46 123 35 28 -6 73 -14 100 -17 27 -3 65 -14
83 -25 44 -26 57 -26 43 0 -12 23 -90 64 -197 104 -40 15 -86 41 -103 56 -27
25 -30 32 -20 50 12 22 6 40 -13 40 -6 0 -31 7 -54 16 -29 11 -43 23 -43 35 0
16 6 18 46 12 39 -5 49 -3 61 13 13 18 15 18 27 2 25 -34 186 -14 186 23 0 11
21 30 60 52 54 30 58 35 44 49 -13 13 -13 17 -2 23 7 5 10 4 5 0 -11 -12 83
-69 95 -57 6 6 -1 11 -19 15 -15 3 -49 27 -75 52 -47 47 -47 47 -31 74 10 14
18 27 19 29 1 1 22 -3 47 -10 37 -9 49 -9 61 1 14 12 14 16 -2 43 -24 41 -49
54 -114 60 -31 2 -68 12 -82 21 l-25 17 20 34 c22 37 42 46 109 46 58 0 113
27 120 60 10 41 71 65 160 63 64 -2 140 10 140 22 0 2 -14 24 -30 49 -24 35
-38 46 -68 51 -58 9 -68 19 -54 49 10 22 18 26 56 26 43 0 44 1 51 38 5 32 15
42 76 81 52 34 68 49 63 60 -10 20 -10 62 0 82 5 12 -9 21 -73 43 -44 15 -85
34 -92 42 -6 8 -30 14 -53 14 -50 0 -88 10 -84 21 2 4 25 30 51 58 32 33 79
66 142 98 l94 48 -21 22 c-30 33 -11 76 41 92 53 15 68 35 51 66 -7 14 -24 25
-39 27 -16 2 -27 10 -29 22 -3 16 0 18 22 12 22 -5 26 -3 26 17 0 21 -11 27
-98 55 -53 18 -104 32 -112 32 -10 0 -9 4 4 13 14 10 17 21 12 43 -5 23 -18
35 -57 54 -28 13 -57 34 -65 46 -14 20 -17 21 -56 7 -44 -15 -90 -10 -108 12
-8 10 -1 16 36 29 58 20 77 20 112 2 15 -7 46 -17 70 -21 33 -5 41 -4 37 7 -8
20 -67 55 -115 68 -23 6 -63 24 -88 40 l-45 28 24 15 c13 8 44 26 69 41 25 14
41 26 36 26 -5 0 -52 7 -105 16 -101 18 -150 39 -132 57 6 6 11 28 11 48 0 44
9 49 96 49 60 0 64 2 70 25 3 14 19 35 35 46 28 19 34 20 98 9 57 -11 161 -8
161 4 0 15 -34 93 -45 106 -13 14 -12 23 3 70 15 49 23 58 80 94 46 29 61 44
56 56 -4 8 -7 26 -8 40 -1 22 3 25 34 25 19 0 36 5 38 10 4 14 -57 45 -88 45
-29 0 -200 61 -200 72 0 4 9 22 20 41 16 27 39 43 106 73 l86 39 -6 37 c-8 50
0 66 40 74 44 8 59 26 44 54 -7 13 -9 37 -5 59 5 33 3 40 -18 54 -14 9 -37 19
-52 23 -15 4 -29 12 -31 19 -3 6 -26 34 -52 62 -40 42 -58 53 -114 69 -38 10
-68 22 -68 25 0 12 43 18 92 12 49 -6 50 -6 39 15 -7 12 -35 34 -64 48 -29 14
-62 35 -73 46 -12 11 -29 18 -38 16 -10 -2 -41 15 -71 37 -49 36 -54 44 -55
78 0 24 5 40 15 43 8 4 15 14 15 24 0 17 -37 29 -167 56 -15 3 -23 12 -23 24
0 11 3 20 8 20 43 2 155 22 176 31 34 16 34 32 -1 25 -43 -9 -128 -10 -141 -2
-31 19 23 54 90 58 20 1 36 5 35 8 -5 13 45 63 85 84 65 34 60 47 -29 79 -116
41 -115 39 -36 86 56 33 93 46 197 68 120 25 128 29 143 56 14 27 14 31 -1 39
-9 5 -16 20 -16 33 0 13 -11 31 -25 42 l-26 18 36 42 c19 23 50 51 68 62 19
11 42 35 51 54 l18 33 -36 57 c-26 41 -51 65 -94 90 -31 18 -58 40 -60 48 -2
10 22 27 68 49 81 39 90 48 99 93 5 22 18 39 44 56 40 26 43 41 31 134 -6 42
-11 49 -50 72 -24 14 -48 35 -54 45 -6 11 -31 43 -55 70 -46 52 -53 68 -34 87
7 7 -6 17 -43 33 -80 34 -210 110 -229 134 -12 15 -14 25 -7 34 6 7 9 14 7 16
-22 17 -139 51 -242 70 -71 13 -131 26 -134 29 -3 4 -3 12 0 20 4 10 20 13 59
11 51 -3 50 -3 -15 9 -58 10 -71 16 -83 38 -14 27 -39 40 -113 59 l-44 12 51
29 c46 26 52 33 52 63 0 30 -5 35 -55 61 -83 42 -87 57 -30 115 45 46 47 50
40 89 -5 31 -16 48 -42 69 -19 15 -44 34 -56 43 -20 15 -19 17 36 50 31 19 57
38 57 43 0 4 18 30 40 56 36 43 39 49 30 82 -8 27 -23 43 -73 74 -51 33 -65
48 -75 80 -16 52 -77 116 -142 149 l-52 27 6 40 7 41 -33 -7 c-17 -3 -39 -13
-48 -21 -19 -17 -135 -21 -160 -5 -11 7 -9 11 14 19 15 6 31 9 36 6 4 -3 19
-1 32 4 19 8 13 10 -32 12 -30 1 -58 1 -62 0 -5 0 -8 5 -9 11 0 7 -4 4 -9 -7
-6 -15 -7 -11 -7 17 1 51 -29 88 -84 106 -24 8 -45 16 -47 17 -9 7 12 55 24
55 7 0 18 8 23 18 9 17 1 19 -93 31 -57 7 -141 21 -187 32 -92 21 -390 39
-942 59 -174 6 -354 13 -400 15 -45 2 -221 -1 -392 -5z m-1155 -98 c0 -10 -11
-29 -24 -41 -22 -20 -31 -22 -75 -16 l-51 7 42 34 c50 39 108 48 108 16z
m-366 -34 c16 -60 -4 -87 -64 -87 l-35 0 33 27 c22 18 32 36 32 55 0 33 25 37
34 5z m-1534 -687 c0 -10 -96 -51 -121 -51 -11 0 -19 3 -19 8 0 7 33 31 60 44
22 10 80 9 80 -1z m6395 -1093 c52 -24 21 -48 -62 -48 -47 0 -54 12 -26 42 19
21 51 23 88 6z m-2800 -131 c78 -22 100 -43 40 -41 -32 2 -202 48 -212 58 -14
14 98 3 172 -17z m2430 -5287 c-3 -5 -1 -10 5 -10 6 0 8 -5 4 -11 -4 -8 -9 -7
-15 2 -7 12 -3 29 7 29 3 0 2 -4 -1 -10z m-146 -54 l25 -14 -34 -17 c-22 -11
-67 -19 -134 -22 -91 -5 -99 -4 -86 10 18 19 134 56 175 56 17 0 41 -6 54 -13z
m-259 -3206 c0 -5 -4 -10 -10 -10 -5 0 -10 5 -10 10 0 6 5 10 10 10 6 0 10 -4
10 -10z m50 1 c0 -6 -4 -13 -10 -16 -5 -3 -10 1 -10 9 0 9 5 16 10 16 6 0 10
-4 10 -9z m35 -11 c3 -5 1 -10 -4 -10 -6 0 -11 5 -11 10 0 6 2 10 4 10 3 0 8
-4 11 -10z m-393 -347 c18 -15 34 -28 36 -29 8 -5 -19 -42 -34 -48 -17 -7 -84
29 -84 45 0 13 33 58 42 59 3 0 21 -12 40 -27z"/>
<path d="M10285 12313 c-250 -6 -557 -25 -630 -38 -44 -8 -102 -15 -128 -15
-26 0 -80 -7 -120 -15 -84 -17 -511 -36 -907 -41 -165 -1 -286 -7 -303 -13
-16 -6 -67 -11 -115 -11 -48 0 -269 -18 -491 -40 -222 -22 -513 -46 -645 -55
-133 -8 -385 -24 -561 -35 -176 -11 -338 -24 -360 -30 -22 -5 -99 -18 -172
-29 -439 -67 -868 -217 -962 -337 -18 -23 -66 -135 -59 -138 38 -16 43 -25 40
-77 -2 -29 -15 -83 -28 -120 -13 -36 -24 -69 -24 -72 0 -3 19 -7 42 -9 31 -2
44 -8 46 -20 3 -14 -12 -25 -59 -45 l-62 -27 42 -18 c38 -16 41 -20 35 -44 -6
-23 -1 -32 26 -54 28 -23 31 -29 21 -48 -17 -32 -14 -40 29 -68 23 -15 37 -31
33 -35 -5 -5 -40 -20 -78 -33 -41 -14 -76 -33 -84 -46 -13 -20 -12 -23 15 -45
16 -13 57 -31 90 -40 72 -20 129 -61 119 -87 -4 -10 -25 -23 -47 -30 -60 -18
-90 -78 -53 -108 25 -20 18 -36 -36 -80 -31 -26 -52 -53 -56 -71 -3 -15 -18
-40 -34 -55 -16 -15 -29 -38 -29 -50 0 -59 -13 -84 -57 -111 -49 -32 -60 -57
-44 -106 16 -46 41 -68 90 -74 23 -3 41 -9 41 -14 0 -14 -72 -46 -120 -54 -61
-10 -112 -32 -109 -47 2 -7 0 -23 -4 -34 -5 -15 -1 -34 13 -58 23 -38 28 -40
149 -54 l65 -7 -32 -36 c-24 -27 -28 -39 -20 -47 9 -9 8 -19 -5 -41 -17 -29
-15 -78 9 -188 3 -18 3 -33 -2 -33 -5 0 -17 -7 -27 -14 -17 -13 -17 -16 -2
-52 15 -36 15 -40 -3 -63 -10 -14 -36 -35 -58 -46 -21 -11 -40 -28 -42 -38 -6
-30 92 -98 171 -118 68 -18 64 -39 -25 -120 l-72 -66 52 -13 c29 -6 52 -16 52
-21 0 -35 -64 -104 -112 -122 -12 -4 -18 -17 -18 -35 0 -19 -11 -39 -36 -63
-28 -27 -34 -40 -30 -60 3 -15 2 -43 -1 -63 -4 -29 -14 -41 -49 -63 -34 -22
-44 -34 -44 -55 0 -14 -2 -32 -5 -40 -3 -8 13 -24 40 -42 72 -45 74 -58 15
-96 -58 -37 -80 -64 -80 -98 0 -19 -4 -23 -17 -17 -46 19 -53 18 -52 -6 0 -38
51 -69 157 -96 53 -14 98 -26 99 -27 2 -2 -14 -22 -35 -45 -35 -40 -40 -53
-67 -182 -27 -128 -32 -143 -68 -187 -37 -44 -57 -81 -57 -103 0 -14 48 -11
53 4 3 9 10 7 23 -6 17 -16 17 -17 2 -11 -11 3 -18 1 -18 -5 0 -6 -6 -11 -13
-11 -7 0 -21 -6 -30 -12 -15 -12 -10 -19 52 -66 38 -29 74 -58 80 -66 15 -18
5 -41 -25 -54 -16 -8 -24 -20 -24 -36 0 -21 5 -25 33 -28 28 -3 32 -6 29 -28
-1 -14 -15 -34 -30 -45 -43 -32 -72 -66 -72 -87 0 -10 -13 -45 -30 -78 -16
-33 -30 -71 -30 -85 0 -36 -15 -61 -71 -123 -68 -74 -77 -145 -28 -213 24 -34
21 -41 -34 -76 -43 -27 -113 -91 -106 -97 2 -2 19 -11 36 -20 42 -21 44 -46 3
-46 -16 0 -30 -4 -30 -10 0 -25 59 -72 115 -91 33 -12 63 -25 66 -31 3 -5 0
-28 -8 -50 -8 -23 -11 -54 -8 -70 11 -49 56 -151 80 -183 l23 -31 -24 -21
c-33 -29 -30 -46 11 -66 48 -23 45 -44 -9 -58 -29 -7 -57 -25 -86 -54 l-43
-44 34 -30 c34 -32 123 -71 159 -71 11 0 28 -10 39 -22 19 -20 19 -23 4 -48
-8 -15 -44 -46 -78 -69 -63 -43 -95 -85 -77 -103 6 -6 18 -6 30 1 34 18 58 13
70 -14 7 -14 12 -30 12 -35 0 -19 -43 -48 -78 -55 -69 -12 -72 -14 -72 -53 0
-23 -10 -50 -27 -76 -22 -31 -28 -51 -28 -95 l0 -55 -66 -46 -67 -46 23 -54
c26 -62 62 -90 115 -90 38 0 80 -23 80 -43 0 -13 -84 -59 -139 -76 -44 -14
-44 -14 -38 9 8 33 -17 24 -57 -20 -42 -46 -55 -86 -35 -105 8 -8 48 -20 89
-27 l75 -13 5 -62 c3 -34 8 -65 12 -69 5 -4 -4 -22 -17 -40 -19 -25 -23 -38
-17 -51 5 -10 15 -41 22 -70 12 -52 12 -52 66 -68 30 -9 69 -29 87 -45 l32
-29 -47 -48 c-38 -40 -47 -56 -53 -98 -6 -50 -6 -50 40 -88 49 -41 120 -70
218 -87 85 -16 107 -28 107 -59 0 -25 7 -28 119 -61 118 -34 119 -35 130 -70
6 -22 21 -42 36 -50 18 -9 25 -22 25 -42 0 -24 -4 -28 -30 -28 -34 0 -34 1
-20 -34 9 -25 14 -26 80 -26 l70 0 26 -40 c27 -40 38 -48 48 -31 3 5 43 23 88
41 46 18 87 37 93 42 5 4 37 8 72 8 53 0 72 5 125 34 59 33 63 34 88 19 25
-14 29 -14 66 9 51 33 76 40 94 27 12 -8 9 -9 -10 -5 -21 5 -20 4 5 -8 l30
-14 -25 -5 c-23 -4 -23 -4 -2 -6 12 0 22 -6 22 -11 0 -6 -10 -9 -22 -7 -13 2
-17 2 -10 0 7 -3 9 -9 6 -15 -5 -7 -2 -8 6 -3 7 4 29 8 47 7 19 -1 56 9 82 23
26 13 97 35 157 48 107 25 197 58 209 77 3 6 -5 14 -19 20 -41 15 -17 53 51
79 57 22 213 31 213 12 0 -10 90 9 158 33 27 10 59 13 86 10 31 -5 46 -2 58 9
9 9 18 13 22 10 3 -4 6 -2 6 4 0 6 14 13 31 17 24 4 29 10 25 24 -13 41 165
124 369 173 44 10 85 25 91 34 11 15 246 116 374 160 36 13 83 30 105 39 22 8
55 15 73 16 18 0 44 8 58 17 22 14 29 15 47 3 19 -12 21 -11 9 2 -10 12 -10
17 1 26 24 21 62 30 80 21 11 -7 17 -6 17 0 0 24 67 50 150 56 137 10 173 15
200 29 92 49 110 63 120 92 9 26 17 32 49 37 61 8 130 43 141 71 7 19 17 26
37 26 40 0 56 13 48 39 -5 18 -2 22 25 27 20 5 36 16 46 35 18 36 69 70 158
105 66 26 71 27 97 11 30 -17 43 -10 33 17 -4 11 8 24 42 46 52 33 84 39 84
15 0 -17 49 -40 61 -28 4 4 9 16 11 27 1 10 17 24 34 30 17 6 64 35 105 64 41
29 153 104 249 166 96 63 198 135 227 161 49 45 54 47 84 36 42 -15 73 3 102
58 21 38 31 45 93 67 38 14 89 33 113 41 25 9 62 34 83 55 30 30 52 42 94 51
30 6 54 16 54 22 0 6 16 26 35 45 19 18 32 37 29 42 -6 10 35 47 53 48 6 0 22
14 36 31 18 23 34 32 68 36 35 4 54 15 92 51 28 28 47 55 47 68 0 27 49 69
245 214 105 77 187 151 330 294 272 274 536 574 602 686 10 18 28 31 47 34 17
3 37 15 43 26 11 16 9 25 -10 54 -18 30 -27 35 -52 33 -24 -2 -35 -11 -55 -48
-14 -25 -59 -77 -100 -114 -41 -38 -82 -81 -90 -96 -8 -14 -31 -39 -50 -55
-19 -16 -42 -38 -50 -49 -8 -11 -28 -31 -44 -45 -16 -14 -72 -64 -123 -112
-84 -80 -113 -100 -113 -81 0 3 82 90 183 192 100 102 255 268 345 367 l162
182 55 7 c58 7 72 25 35 45 -11 6 -20 16 -20 23 1 7 24 46 51 87 28 41 48 67
45 58 -7 -23 10 -33 22 -13 4 9 27 36 50 59 37 39 41 47 33 69 -8 21 -7 25 4
20 9 -3 15 1 15 11 0 9 4 16 8 16 17 0 51 88 47 121 -4 25 3 43 31 80 19 26
45 78 58 116 13 37 40 102 61 143 21 41 42 93 45 115 4 22 15 67 24 100 21 77
20 122 -3 220 -49 201 -106 310 -226 428 -56 55 -69 62 -185 103 -165 59 -334
92 -486 96 -65 2 -256 -3 -424 -11 l-305 -13 -200 -50 c-110 -27 -220 -59
-245 -72 -64 -33 -106 -41 -113 -22 -4 9 -18 16 -31 16 -22 0 -25 -5 -28 -41
l-3 -41 -95 -35 c-82 -30 -168 -63 -206 -79 -6 -3 -18 2 -27 10 -9 9 -22 16
-30 16 -19 0 -67 -45 -67 -63 0 -16 -62 -37 -109 -37 -26 0 -36 -8 -68 -56
-33 -50 -47 -61 -133 -104 -52 -26 -113 -53 -135 -60 -22 -7 -49 -20 -60 -30
-51 -45 -900 -481 -987 -507 -26 -7 -50 -18 -53 -23 -12 -19 -70 -44 -120 -51
-27 -4 -77 -17 -110 -30 -33 -12 -83 -22 -111 -23 -34 -1 -57 -7 -68 -19 -11
-10 -33 -17 -57 -17 -34 0 -39 3 -39 22 0 22 -1 22 -25 -5 -32 -34 -58 -35
-73 -2 -14 30 -9 30 -292 13 -212 -12 -260 -9 -260 18 0 13 -11 15 -72 11 -40
-3 -96 -11 -124 -18 -45 -11 -57 -10 -121 9 -39 12 -83 22 -98 22 -23 0 -26 3
-22 21 3 12 -1 32 -9 44 -13 20 -13 24 1 35 13 11 26 10 73 -4 31 -10 90 -22
131 -27 41 -5 77 -11 79 -14 3 -3 11 0 18 6 9 7 19 7 33 0 11 -6 42 -11 70
-11 47 0 51 2 51 24 0 22 -7 24 -102 41 -57 10 -137 19 -178 20 -60 2 -93 9
-164 39 -50 20 -101 36 -115 36 -42 0 -186 55 -259 98 -95 57 -152 60 -177 11
-16 -29 -15 -31 4 -36 12 -3 21 -8 22 -12 0 -3 3 -19 5 -34 3 -18 -3 -41 -16
-61 -17 -29 -25 -33 -55 -30 -19 1 -48 9 -65 17 -69 35 -234 191 -354 337 -81
98 -172 260 -162 287 4 8 -1 35 -9 59 -8 25 -16 68 -16 97 -1 29 -6 66 -12 83
-13 40 0 144 18 144 7 0 15 3 18 8 2 4 2 1 0 -7 -2 -8 2 -11 11 -8 8 3 17 1
19 -6 9 -26 20 6 21 62 0 33 5 57 10 54 5 -4 6 7 3 23 -3 16 -4 23 -1 16 5
-10 12 -8 30 9 21 19 24 32 24 90 0 44 7 83 19 112 17 40 23 45 61 50 23 3 55
1 72 -5 42 -15 57 2 34 37 -14 21 -15 33 -7 56 12 34 2 43 -34 29 -40 -15
-122 -13 -128 4 -8 21 2 26 54 26 47 0 47 0 61 43 13 38 18 42 51 45 20 2 37
5 37 8 0 3 -14 25 -31 50 -16 24 -27 49 -23 55 3 6 1 21 -6 34 -10 19 -9 29
13 66 14 24 38 79 53 123 26 68 34 80 67 97 41 22 41 22 26 51 -19 35 6 102
47 124 26 14 36 16 46 6 13 -13 48 -16 48 -4 0 4 -4 12 -9 18 -5 5 -13 26 -16
47 -7 37 -7 37 25 37 39 0 63 26 49 52 -7 12 -3 24 14 44 20 23 31 27 78 27
47 -1 55 2 59 21 4 13 15 22 32 24 20 2 28 10 33 33 6 27 9 29 56 29 38 0 51
4 56 18 3 9 17 32 31 51 l25 34 -34 29 -34 28 28 25 c16 14 40 25 57 25 31 0
41 8 70 57 10 17 43 49 72 71 29 21 78 60 108 87 30 26 71 54 90 62 19 9 66
31 104 51 61 31 72 34 103 24 33 -10 43 -7 124 34 49 24 91 44 93 44 2 0 7
-22 11 -50 4 -27 12 -50 18 -50 21 0 97 51 97 66 0 8 -11 32 -25 52 -14 20
-25 40 -25 43 0 4 14 12 30 18 27 9 34 7 65 -20 40 -35 58 -33 100 11 l29 30
-47 0 c-49 0 -58 9 -32 30 9 8 29 10 51 7 34 -6 35 -5 32 21 -3 23 0 27 21 24
13 -2 34 -1 47 2 21 6 24 12 24 52 l0 45 45 -7 c44 -6 45 -6 60 29 14 35 40
57 65 57 8 0 10 -19 8 -57 -3 -57 -2 -58 22 -56 38 4 104 11 109 12 2 1 -4 10
-13 20 -13 15 -14 20 -4 24 7 3 -1 3 -18 0 -36 -6 -59 15 -26 24 12 3 22 14
24 26 2 17 18 25 83 43 97 27 115 29 115 9 0 -20 20 -19 49 4 20 15 21 19 7
24 -9 4 -16 15 -16 26 0 17 15 25 88 47 48 14 103 38 123 54 74 58 299 134
299 101 0 -13 -43 -46 -80 -61 -18 -8 -30 -20 -30 -31 0 -17 8 -19 60 -19 57
0 60 -1 50 -19 -15 -30 -14 -30 47 -24 44 5 62 12 80 32 41 46 13 113 -52 125
-71 14 -51 47 39 66 28 6 68 22 88 36 24 17 44 24 57 19 12 -4 42 5 81 25 33
17 100 40 148 51 104 24 168 46 203 71 48 32 122 60 213 78 59 12 92 24 98 35
8 13 22 16 61 14 86 -4 218 12 238 29 26 23 14 32 -39 30 -26 -1 -92 -3 -147
-5z m-4298 -3205 c-3 -7 -5 -2 -5 12 0 14 2 19 5 13 2 -7 2 -19 0 -25z m1682
-1379 c17 -6 31 -17 31 -24 0 -11 -10 -11 -55 0 -30 7 -58 9 -62 6 -4 -3 -1 2
6 12 16 20 35 21 80 6z m5012 -152 c-10 -9 -11 -8 -5 6 3 10 9 15 12 12 3 -3
0 -11 -7 -18z m-8104 -209 c-3 -8 -6 -5 -6 6 -1 11 2 17 5 13 3 -3 4 -12 1
-19z m6926 -1115 c-43 -52 -127 -117 -142 -111 -6 1 31 40 82 85 50 45 93 80
96 78 2 -3 -14 -26 -36 -52z m-393 -345 c0 -23 -14 -35 -46 -42 -18 -4 -50
-23 -73 -43 -43 -36 -60 -39 -43 -6 15 27 52 58 97 82 45 24 65 27 65 9z
m-562 -429 c10 -14 4 -21 -43 -53 -53 -35 -55 -35 -55 -14 0 13 4 28 8 34 6
11 75 56 77 51 0 -1 6 -9 13 -18z m-228 -174 c0 -15 -126 -125 -143 -125 -5 0
-22 8 -37 17 l-29 17 55 33 c30 18 62 33 70 33 9 0 27 9 41 20 31 24 43 25 43
5z m-591 -382 c-33 -44 -66 -76 -88 -84 -49 -19 -82 17 -43 48 28 23 95 53
121 53 21 0 22 -2 10 -17z m-519 -309 c0 -1 -21 -13 -47 -26 -27 -13 -51 -27
-54 -32 -4 -4 -9 -4 -12 1 -6 10 77 60 100 60 7 0 13 -2 13 -3z m-1235 -604
c-22 -24 -125 -74 -186 -90 -24 -6 -68 -22 -97 -37 -29 -14 -74 -28 -100 -31
l-47 -5 23 26 c16 17 47 31 90 42 37 9 126 38 197 65 72 27 132 49 134 49 2 1
-4 -8 -14 -19z m-551 -217 c-42 -32 -98 -54 -147 -60 -29 -3 -50 -3 -47 0 3 3
40 23 83 45 53 27 86 38 104 34 25 -5 25 -6 7 -19z m-240 -91 c6 -9 -132 -82
-156 -82 -30 0 -29 18 3 41 54 38 140 61 153 41z m-274 -202 c-8 -5 -19 -10
-25 -10 -5 0 -3 5 5 10 8 5 20 10 25 10 6 0 3 -5 -5 -10z"/>
<path d="M7608 7723 c7 -3 16 -2 19 1 4 3 -2 6 -13 5 -11 0 -14 -3 -6 -6z"/>
<path d="M7648 7713 c6 -2 18 -2 25 0 6 3 1 5 -13 5 -14 0 -19 -2 -12 -5z"/>
<path d="M9775 12066 c-46 -12 -50 -15 -48 -40 2 -27 1 -28 -42 -23 -43 4 -45
3 -45 -22 1 -20 11 -32 46 -53 52 -32 63 -34 89 -14 19 14 19 15 1 35 -10 11
-16 25 -14 32 2 6 37 24 78 39 87 32 99 54 30 57 -25 0 -67 -4 -95 -11z"/>
<path d="M7201 9864 c-13 -15 -43 -115 -40 -131 1 -4 -1 -16 -5 -25 -4 -10 -6
-23 -3 -30 3 -7 14 8 26 35 12 26 19 52 16 57 -3 6 -1 10 5 10 6 0 8 5 5 10
-4 6 -2 17 4 24 6 7 8 22 4 31 -4 11 -2 16 4 12 5 -3 10 0 10 8 0 19 -8 18
-26 -1z m-24 -126 c-3 -8 -6 -5 -6 6 -1 11 2 17 5 13 3 -3 4 -12 1 -19z"/>
<path d="M7146 9612 c-9 -16 -19 -280 -11 -318 l8 -39 8 40 c15 74 23 325 11
325 -6 0 -13 -4 -16 -8z"/>
<path d="M14101 7845 c-1 -6 -12 -58 -25 -115 -13 -58 -26 -126 -30 -150 l-7
-45 16 28 c26 46 65 232 55 264 -5 16 -9 23 -9 18z"/>
<path d="M15686 6597 c-14 -10 -16 -16 -7 -22 15 -9 35 8 30 24 -3 8 -10 7
-23 -2z"/>
<path d="M10373 5089 c-45 -17 -122 -83 -110 -95 2 -2 31 5 64 17 49 16 66 28
87 60 30 45 29 45 -41 18z"/>
<path d="M15307 4939 c7 -7 15 -10 18 -7 3 3 -2 9 -12 12 -14 6 -15 5 -6 -5z"/>
<path d="M9070 4293 c-64 -17 -81 -29 -60 -44 27 -18 132 16 144 47 7 17 -11
17 -84 -3z"/>
<path d="M8859 4196 c-43 -13 -128 -76 -129 -93 0 -23 32 -14 131 39 63 33 94
55 86 60 -16 10 -44 8 -88 -6z"/>
<path d="M8151 4002 c3 -19 -2 -25 -11 -12 -5 8 -12 11 -16 7 -4 -4 -3 -12 3
-18 8 -8 17 -7 33 4 17 12 18 16 6 20 -9 4 -15 3 -15 -1z"/>
<path d="M8140 3905 c-163 -64 -249 -102 -243 -110 5 -4 3 -5 -3 -2 -16 9 -84
-14 -77 -26 4 -6 0 -8 -9 -5 -8 4 -20 -2 -26 -13 -14 -22 -9 -24 20 -8 11 6
29 12 41 15 48 9 197 71 190 79 -5 4 -3 5 4 1 14 -8 135 24 145 39 10 13 10
45 1 45 -5 -1 -24 -7 -43 -15z"/>
<path d="M6921 3433 c-27 -5 -82 -58 -72 -69 3 -4 1 -4 -5 -1 -6 4 -36 -2 -67
-13 -31 -11 -64 -20 -72 -20 -9 0 -14 -3 -12 -7 3 -5 -9 -9 -27 -10 -17 -1
-105 -24 -196 -51 -91 -28 -180 -53 -198 -57 -18 -4 -36 -13 -39 -22 -3 -8
-12 -12 -21 -8 -22 8 -271 -55 -297 -75 -5 -5 -28 -11 -50 -15 -22 -4 -100
-32 -174 -61 -74 -30 -140 -54 -147 -54 -40 0 -454 -146 -454 -160 0 -4 -26
-11 -57 -15 -56 -6 -103 -27 -103 -44 0 -4 11 -14 24 -21 22 -11 33 -10 83 10
32 12 65 31 75 41 9 11 23 19 31 19 44 0 206 47 312 90 66 27 140 54 165 60
25 6 99 30 165 52 66 22 160 46 208 54 49 7 114 25 145 39 31 15 100 35 152
46 123 25 169 40 315 104 66 29 134 56 152 60 18 3 55 17 83 31 27 13 60 24
72 24 29 0 108 47 108 65 0 15 -43 18 -99 8z"/>
<path d="M5795 3201 c-3 -6 -14 -11 -24 -11 -10 0 -25 -8 -32 -17 -12 -15 -12
-16 1 -8 8 5 24 11 35 12 23 4 41 20 33 28 -3 4 -9 2 -13 -4z"/>
<path d="M5582 3088 c-53 -18 -89 -35 -84 -40 11 -11 169 35 190 56 24 24 3
21 -106 -16z"/>
<path d="M5014 2963 c-3 -32 -11 -66 -16 -75 -5 -10 -6 -18 -2 -18 19 0 204
62 204 68 0 19 -27 32 -65 32 -35 0 -44 4 -53 25 -8 17 -20 25 -36 25 -22 0
-25 -5 -32 -57z"/>
<path d="M8165 1670 c-3 -6 1 -7 9 -4 18 7 21 14 7 14 -6 0 -13 -4 -16 -10z"/>
<path d="M8065 1618 c-27 -18 -72 -44 -100 -60 -27 -15 -44 -28 -37 -28 16 0
95 40 103 52 3 5 8 8 10 7 10 -7 68 27 72 43 3 10 4 18 4 17 -1 0 -24 -14 -52
-31z"/>
</g>
</svg>
