<svg width="60" height="58" viewBox="0 0 60 58" fill="none" xmlns="http://www.w3.org/2000/svg">
<path fill-rule="evenodd" clip-rule="evenodd" d="M10.6743 16.2216L14.8076 18.2883C15.5684 18.6206 16.3964 18.7704 17.2253 18.7255C18.0542 18.6807 18.8612 18.4425 19.5816 18.03L23.4877 15.488C24.1598 15.0001 24.7068 14.36 25.084 13.62C25.4612 12.8801 25.6578 12.0612 25.6576 11.2307L25.4097 6.57033C25.3192 5.74646 25.0365 4.95523 24.5842 4.26063C24.1318 3.56602 23.5226 2.98736 22.8056 2.57134L18.6723 0.45301C17.913 0.116764 17.0851 -0.0359619 16.2557 0.00712802C15.4264 0.0502179 14.6187 0.287883 13.8983 0.701009L9.99239 3.24301C9.32144 3.73208 8.77523 4.37244 8.39827 5.1122C8.0212 5.85186 7.82384 6.67015 7.82229 7.50033L8.07029 12.1607C8.15058 12.9958 8.42865 13.7997 8.88145 14.5059C9.33426 15.2122 9.94888 15.8004 10.6743 16.2216ZM35.6085 22.2564L31.4752 20.1381C30.7162 19.8059 29.89 19.6563 29.0627 19.7011C28.2354 19.746 27.4302 19.9841 26.7116 20.3964L22.7642 22.9384C22.0958 23.4298 21.5513 24.0707 21.1745 24.8099C20.7978 25.549 20.599 26.3661 20.5942 27.1958L20.8423 31.8561C20.9327 32.6801 21.2155 33.4713 21.6678 34.1659C22.1202 34.8605 22.7293 35.4392 23.4462 35.8551L27.5795 37.9217C28.3372 38.2579 29.1633 38.4107 29.9911 38.3676C30.8188 38.3245 31.6246 38.0868 32.3432 37.6738L36.2595 35.1318C36.9283 34.6382 37.4727 33.9955 37.8493 33.2546C38.2261 32.5138 38.4248 31.6952 38.4295 30.8641L38.1815 26.2141C38.0868 25.4008 37.8052 24.6203 37.3589 23.9337C36.9125 23.2472 36.3135 22.6732 35.6085 22.2564ZM44.2266 39.8439L48.3599 41.9105C49.0806 42.3256 49.6932 42.9052 50.1475 43.6019C50.6018 44.2987 50.885 45.0929 50.9742 45.9198L51.1913 50.4975C51.1909 51.3269 50.9952 52.1444 50.62 52.8841C50.2448 53.6237 49.7006 54.2646 49.0316 54.7548L45.1153 57.2968C44.3948 57.7092 43.5879 57.9474 42.7589 57.9923C41.93 58.0371 41.1021 57.8874 40.3413 57.5552L36.208 55.4885C35.5037 55.075 34.9042 54.5047 34.4562 53.8218C34.0082 53.1391 33.7236 52.3622 33.6247 51.5515L33.3766 46.8912C33.3798 46.0612 33.5778 45.2435 33.9547 44.5041C34.3316 43.7646 34.8769 43.124 35.5467 42.6339L39.4526 40.0919C40.173 39.6786 40.9807 39.441 41.81 39.3979C42.6394 39.3548 43.4672 39.5075 44.2266 39.8439ZM17.9076 30.337L17.7113 26.71C17.7161 25.8803 17.9148 25.0633 18.2916 24.3241C18.6684 23.5849 19.2127 22.944 19.8813 22.4527L27.4969 17.503C28.2155 17.0907 29.0208 16.8525 29.8481 16.8077C30.6754 16.7628 31.5016 16.9126 32.2606 17.2447L35.5053 18.898C36.2647 19.2343 37.0925 19.3871 37.9218 19.344C38.7513 19.3009 39.5588 19.0631 40.2793 18.65L44.1853 16.0977C44.8556 15.6081 45.4013 14.9676 45.7782 14.228C46.1552 13.4884 46.3529 12.6705 46.3552 11.8404L46.1072 7.19037C46.0184 6.36463 45.7363 5.57134 45.2839 4.87488C44.8315 4.17831 44.2215 3.59809 43.5033 3.18104L39.3699 1.06271C38.6092 0.730495 37.7813 0.580765 36.9522 0.625612C36.1233 0.670458 35.3164 0.908642 34.5959 1.32104L30.6073 3.82171C29.9382 4.31192 29.394 4.95279 29.0188 5.69245C28.6436 6.43211 28.4479 7.24968 28.4476 8.07903L28.6336 11.706C28.6333 12.5355 28.4375 13.3531 28.0623 14.0927C27.6871 14.8324 27.1429 15.4732 26.4739 15.9633L18.8583 20.913C18.1379 21.3261 17.3303 21.5639 16.501 21.607C15.6715 21.6501 14.8437 21.4973 14.0843 21.161L10.85 19.518C10.0906 19.1818 9.26278 19.029 8.43333 19.0721C7.60398 19.1152 6.79642 19.3529 6.07599 19.766L2.16999 22.308C1.49905 22.7971 0.952939 23.4374 0.575876 24.1772C0.198814 24.917 0.00155 25.7352 0 26.5653L0.247997 31.2257C0.336037 32.0517 0.617827 32.8453 1.07022 33.542C1.52271 34.2386 2.1331 34.8186 2.85199 35.235L6.98532 37.3016C7.74606 37.634 8.57396 37.7837 9.4029 37.7388C10.2318 37.694 11.0389 37.4558 11.7593 37.0433L15.6653 34.5013C16.3366 34.0288 16.8885 33.4065 17.2777 32.6837C17.6669 31.961 17.8825 31.1576 17.9076 30.337ZM57.9899 24.5317C58.4419 25.2277 58.7253 26.0197 58.8173 26.8446L59.0239 31.5462C59.0228 32.3754 58.8267 33.1927 58.4515 33.9323C58.0764 34.6717 57.5327 35.3127 56.8643 35.8035L52.9479 38.3455C52.2275 38.7587 51.4199 38.9963 50.5906 39.0394C49.7612 39.0825 48.9333 38.9298 48.1739 38.5935L44.9396 36.9504C44.1802 36.6142 43.3524 36.4615 42.523 36.5046C41.6937 36.5476 40.886 36.7854 40.1656 37.1985L32.5603 42.1481C31.89 42.6378 31.3443 43.2782 30.9673 44.0179C30.5903 44.7575 30.3927 45.5753 30.3904 46.4054L30.5867 50.0429C30.581 50.8723 30.382 51.689 30.0053 52.4282C29.6286 53.1672 29.0846 53.8082 28.4166 54.3001L24.5004 56.8421C23.7817 57.2551 22.9759 57.4929 22.1481 57.5359C21.3204 57.579 20.4943 57.4263 19.7367 57.0902L15.6034 54.9718C14.8864 54.5558 14.2772 53.9771 13.8249 53.2825C13.3726 52.5879 13.0898 51.7967 12.9993 50.9727L12.7514 46.3125C12.7562 45.4828 12.9549 44.6657 13.3316 43.9266C13.7085 43.1873 14.2529 42.5465 14.9213 42.0552L18.8686 39.5235C19.5873 39.1111 20.3925 38.8731 21.2198 38.8281C22.0471 38.7833 22.8733 38.933 23.6323 39.2652L26.877 40.9185C27.6378 41.2508 28.4657 41.4005 29.2947 41.3556C30.1236 41.3108 30.9305 41.0726 31.651 40.6602L39.2563 35.7209C39.9261 35.2307 40.4714 34.59 40.8482 33.8505C41.2252 33.1111 41.4232 32.2934 41.4264 31.4636L41.23 27.8262C41.2331 26.9963 41.4312 26.1786 41.8081 25.4391C42.185 24.6997 42.7302 24.0591 43.3999 23.5689L47.306 21.0269C48.0267 20.6152 48.8336 20.3775 49.6624 20.3326C50.4912 20.2878 51.3191 20.4371 52.08 20.7686L56.2133 22.8352C56.9294 23.2547 57.5378 23.8356 57.9899 24.5317Z" fill="white"/>
</svg>
